<svg width="35" height="46" viewBox="0 0 35 46" fill="none" xmlns="http://www.w3.org/2000/svg">
<path fill-rule="evenodd" clip-rule="evenodd" d="M24.8553 17.4922H33.8571L32.2511 18.8599H24.6811C24.7966 18.4132 24.8552 17.9537 24.8553 17.4922ZM0.97168 17.4922H9.97345C9.97359 17.9537 10.0321 18.4132 10.1477 18.8599H2.57771L0.97168 17.4922Z" fill="#1080C2"/>
<path fill-rule="evenodd" clip-rule="evenodd" d="M24.7993 19.0901H32.4893L30.8586 20.4578H24.2372C24.4837 20.0286 24.6728 19.5687 24.7993 19.0901ZM2.34094 19.0901H10.0326C10.1591 19.5687 10.3482 20.0286 10.5948 20.4578H3.97329L2.34094 19.0901Z" fill="white"/>
<path fill-rule="evenodd" clip-rule="evenodd" d="M3.70862 20.6879H10.4599C10.7557 21.1911 11.1191 21.6513 11.54 22.0556H5.37219L3.70862 20.6879ZM24.3703 20.6879H31.1216L29.4581 22.0556H23.2903C23.7112 21.6513 24.0746 21.1911 24.3703 20.6879Z" fill="#5CB85C"/>
<path d="M8.71294 42.3918C7.56716 41.2509 6.65745 39.8951 6.03685 38.402C5.41625 36.9088 5.09665 35.3079 5.09613 33.6909V22.5126L0 17.4167L0.56909 16.8462L5.10094 12.3125V5.09593H12.3193L17.4154 0L22.5108 5.09593H29.7275V12.3125L34.8237 17.4084L29.7275 22.5044V33.6827C29.7272 35.2997 29.4074 36.9006 28.7868 38.3937C28.1662 39.8869 27.2575 41.2428 26.1115 42.3836C24.9704 43.5295 23.6141 44.4389 22.1207 45.0595C20.6273 45.6801 19.0254 45.9996 17.4082 46C15.7927 45.9998 14.1936 45.681 12.7014 45.0619C11.2092 44.4427 9.85402 43.5354 8.71294 42.3918ZM6.70708 33.6909C6.70783 35.0964 6.98586 36.4879 7.5258 37.7855C8.06574 39.0832 8.85705 40.2614 9.85353 41.2526C10.8448 42.249 12.0226 43.0398 13.3202 43.5798C14.6179 44.1197 16.01 44.398 17.4154 44.3989C18.8209 44.398 20.2122 44.1197 21.5098 43.5798C22.8075 43.0398 23.9853 42.249 24.9766 41.2526C25.9732 40.2615 26.7643 39.0834 27.3043 37.7857C27.8442 36.488 28.1224 35.0964 28.123 33.6909V22.2906H22.6264L22.9546 21.911C23.4778 21.3006 23.8849 20.5997 24.1562 19.8429C24.4055 19.1328 24.5406 18.3876 24.556 17.6352H23.5189C23.4627 19.1735 22.8254 20.6334 21.7354 21.7203C21.1693 22.2878 20.4966 22.7377 19.756 23.0443C19.0155 23.351 18.2218 23.5083 17.4203 23.5071C16.6187 23.5083 15.825 23.351 15.0845 23.0443C14.344 22.7377 13.6712 22.2878 13.1051 21.7203C12.0157 20.6332 11.379 19.1733 11.3232 17.6352H10.2854C10.3006 18.3875 10.4352 19.1326 10.6835 19.8429C10.9551 20.5995 11.3623 21.3004 11.8851 21.911L12.2142 22.2906H6.71671L6.70708 33.6909ZM14.2409 20.5812C14.6576 20.9987 15.1527 21.3297 15.6977 21.5554C16.2428 21.7811 16.8272 21.8968 17.4171 21.8961C18.007 21.897 18.5913 21.7813 19.1364 21.5556C19.6814 21.3299 20.1758 20.9988 20.5924 20.5812C21.3814 19.7966 21.8507 18.7464 21.908 17.6352H12.9374C12.9911 18.7446 13.4551 19.7946 14.2393 20.5812H14.2409ZM24.5873 19.9958C24.3516 20.6525 24.019 21.2703 23.6008 21.8287H28.1351L32.3282 17.6352H25.0167C24.9994 18.4399 24.8537 19.2368 24.5857 19.9958H24.5873ZM11.2309 21.8287C10.8124 21.2705 10.4798 20.6526 10.2444 19.9958C9.97782 19.2366 9.83444 18.4397 9.81902 17.6352H2.49549L6.68862 21.8287H11.2309ZM24.556 17.1751H32.3298L28.3012 13.1459L23.1393 15.283C23.3644 15.8896 23.491 16.5284 23.5141 17.1751H24.556ZM21.9015 17.1751C21.8798 16.7405 21.7945 16.3113 21.6495 15.901L19.6228 16.741C19.6657 16.883 19.6948 17.029 19.7087 17.1767L21.9015 17.1751ZM15.1238 17.1751C15.1388 17.0272 15.1681 16.8813 15.2121 16.7394L13.1838 15.8994C13.0384 16.3096 12.9539 16.7388 12.9326 17.1734L15.1238 17.1751ZM10.2773 17.1751H11.3184C11.3419 16.5284 11.4685 15.8897 11.6932 15.283L6.5329 13.1459L6.4719 13.2067L2.50191 17.1767L10.2773 17.1751ZM15.3863 16.3152C15.4565 16.1848 15.5397 16.0615 15.6335 15.947L14.0812 14.3968C13.7895 14.7199 13.5465 15.0837 13.3596 15.4768L15.3863 16.3152ZM19.4454 16.3152L21.4721 15.4752C21.2858 15.0818 21.0427 14.7179 20.7505 14.3952L19.199 15.9454C19.2936 16.0605 19.376 16.1851 19.4454 16.317V16.3152ZM18.8731 15.6215L20.423 14.0697C20.0999 13.7777 19.7365 13.5341 19.3435 13.3465L18.5031 15.3733C18.634 15.4445 18.7581 15.5282 18.8731 15.6231V15.6215ZM15.957 15.6215C16.0718 15.5279 16.1952 15.4454 16.3254 15.3749L15.485 13.3481C15.0928 13.5363 14.73 13.7798 14.4071 14.0713L15.957 15.6215ZM16.7492 15.1991C16.8913 15.1565 17.0374 15.1279 17.1851 15.1136V12.9207C16.7504 12.9426 16.3213 13.0277 15.9113 13.1738L16.7492 15.1991ZM18.0809 15.1991L18.9196 13.1722C18.5102 13.0259 18.0808 12.9407 17.6466 12.9191V15.112C17.7938 15.1277 17.9394 15.1573 18.0809 15.2007V15.1991ZM11.8674 14.8588C12.1387 14.2714 12.5007 13.7305 12.9406 13.256L6.70708 7.02253V12.7219L11.8674 14.8588ZM22.9635 14.8588L28.1246 12.7219V7.02253L21.8911 13.256C22.3306 13.7308 22.6924 14.2723 22.9619 14.8604L22.9635 14.8588ZM21.566 12.9306L27.7979 6.69705H22.0998L21.3886 8.41495C21.2813 8.29508 21.1577 8.19039 21.0218 8.10412L21.6792 6.52106L17.6506 2.49208V11.308C18.2972 11.3315 18.9358 11.458 19.5425 11.6828L19.8941 10.8346C20.0093 10.9394 20.1465 11.0175 20.2954 11.0631L19.9663 11.8588C20.552 12.1297 21.0916 12.4914 21.5644 12.9306H21.566ZM13.2657 12.9306C13.7397 12.4902 14.2809 12.1279 14.8686 11.8572L12.7319 6.69705H7.03216L13.2657 12.9306ZM15.2932 11.6828C15.8999 11.458 16.5385 11.3315 17.1851 11.308V2.49208L13.1557 6.52106L15.2932 11.6828ZM16.608 42.4855V37.9814C15.4636 37.8073 14.4053 37.2709 13.5883 36.4509C13.0847 35.9499 12.6852 35.3543 12.4124 34.6985C12.1396 34.0426 11.9985 33.3393 11.9983 32.629V28.0261H13.61V32.629C13.6102 33.1278 13.7087 33.6216 13.9006 34.082C14.0924 34.5424 14.3732 34.9604 14.7273 35.3117C15.0788 35.6655 15.4966 35.9463 15.957 36.1378C16.4174 36.3294 16.9119 36.4279 17.4106 36.4278C17.9093 36.4279 18.403 36.3294 18.8635 36.1378C19.3239 35.9463 19.7417 35.6655 20.0931 35.3117C20.4469 34.9602 20.7275 34.5422 20.9191 34.0818C21.1106 33.6214 21.2089 33.1277 21.2088 32.629V28.0261H22.8222V32.629C22.8221 33.3392 22.6813 34.0424 22.4088 34.6983C22.1363 35.3541 21.737 35.9497 21.2337 36.4509C20.4157 37.2704 19.3572 37.8068 18.2125 37.9814V42.4855H16.608ZM16.608 34.6082V26.0437H12.0055V24.431H22.8286V26.0437H18.2253V34.6082H16.608ZM20.0105 10.6357C19.9324 10.5592 19.8706 10.4678 19.8283 10.367C19.7859 10.2663 19.764 10.1581 19.764 10.0488C19.764 9.93949 19.7859 9.83129 19.8283 9.73052C19.8706 9.62976 19.9324 9.53855 20.0105 9.46203C20.1135 9.36034 20.2409 9.28681 20.3805 9.24852C20.5201 9.21024 20.6678 9.2084 20.8083 9.2433C20.8142 9.10874 20.7786 8.97572 20.7064 8.86204C20.6539 8.78299 20.5799 8.72076 20.4929 8.68284V8.11576C20.7408 8.18868 20.9665 8.32192 21.1503 8.50365C21.2951 8.64615 21.4097 8.8161 21.4882 9.00351C21.5666 9.19091 21.6071 9.39191 21.607 9.59507C21.6074 9.92721 21.4995 10.2505 21.2995 10.5157C21.2693 10.5587 21.2351 10.5989 21.1976 10.6357C21.0399 10.7923 20.8267 10.8797 20.6044 10.8789C20.3838 10.8788 20.1724 10.7914 20.0161 10.6357H20.0105Z" fill="#CAA56C"/>
</svg>